<?xml version="1.0" standalone="no"?>
<!DOCTYPE svg PUBLIC "-//W3C//DTD SVG 20010904//EN"
 "http://www.w3.org/TR/2001/REC-SVG-20010904/DTD/svg10.dtd">
<svg version="1.0" xmlns="http://www.w3.org/2000/svg"
 width="200.000000pt" height="200.000000pt" viewBox="0 0 200.000000 200.000000"
 preserveAspectRatio="xMidYMid meet">

<g transform="translate(0.000000,200.000000) scale(0.100000,-0.100000)"
fill="#000000" stroke="none">
<path d="M0 1000 l0 -1000 1000 0 1000 0 0 1000 0 1000 -1000 0 -1000 0 0
-1000z m104 698 c3 -13 10 -86 16 -163 6 -77 15 -194 20 -260 6 -66 17 -212
26 -325 9 -113 19 -245 23 -295 l7 -90 12 145 c7 80 17 192 22 250 5 58 14
170 20 250 13 189 28 380 36 453 5 46 10 57 23 55 14 -3 16 -56 19 -553 4
-632 -3 -855 -24 -855 -12 0 -14 70 -15 433 -2 448 -3 449 -33 42 -26 -343
-36 -458 -42 -467 -10 -16 -34 -8 -39 15 -2 12 -12 119 -20 237 -8 118 -20
267 -25 330 -5 63 -11 131 -12 150 -2 19 -5 -138 -8 -350 -4 -333 -7 -385 -20
-385 -13 0 -15 86 -18 703 -2 616 0 702 13 702 8 0 17 -10 19 -22z m276 6 c0
-5 40 -238 61 -354 6 -30 15 -84 20 -120 14 -87 25 -94 34 -23 3 32 10 76 15
98 5 22 14 69 20 105 6 36 15 85 20 110 5 25 14 76 21 113 13 68 33 103 44 75
6 -14 -19 -165 -90 -558 -26 -142 -26 -133 5 -305 6 -30 15 -80 20 -110 6 -30
15 -81 20 -112 47 -255 52 -308 30 -308 -15 0 -22 30 -71 305 -12 69 -27 157
-34 195 l-11 70 -11 -40 c-11 -42 -17 -77 -58 -320 -33 -191 -38 -210 -55
-210 -18 0 -18 32 -2 120 6 33 22 128 37 210 14 83 30 174 36 203 33 188 40
107 -57 651 -19 107 -33 200 -30 207 5 12 36 9 36 -2z m294 -6 c3 -13 10 -86
16 -163 10 -135 16 -214 40 -505 7 -74 17 -209 24 -300 13 -185 12 -188 36
108 6 67 15 177 20 245 6 67 17 214 25 327 22 291 25 312 44 308 14 -3 16 -58
19 -553 4 -632 -3 -855 -24 -855 -12 0 -14 70 -15 433 l-2 432 -12 -165 c-7
-91 -18 -223 -24 -295 -6 -71 -15 -188 -21 -259 -11 -138 -13 -146 -35 -146
-17 0 -21 21 -35 215 -6 83 -15 195 -20 250 -5 55 -13 147 -17 205 -6 83 -9
23 -13 -280 -4 -333 -7 -385 -20 -385 -13 0 -15 86 -18 703 -2 616 0 702 13
702 8 0 17 -10 19 -22z m287 -533 c3 -303 7 -609 8 -682 l1 -132 72 -3 c61 -3
73 -6 76 -21 3 -16 -5 -18 -90 -15 l-93 3 -6 290 c-3 160 -7 476 -8 703 -1
389 0 413 17 410 16 -3 17 -40 23 -553z m911 230 c1 -52 2 -107 2 -122 1 -44
-26 -35 -40 13 -37 127 -52 134 -309 134 l-195 0 0 -210 0 -210 160 0 c122 0
168 4 189 15 30 15 61 76 61 121 0 19 5 25 18 22 15 -3 17 -22 20 -196 2 -179
1 -192 -15 -192 -14 0 -21 13 -30 51 -24 98 -50 109 -254 109 l-151 0 4 -217
c3 -120 8 -226 12 -235 11 -25 79 -32 244 -25 131 6 149 9 188 32 45 27 114
109 133 158 7 18 18 27 32 27 13 0 19 -5 16 -13 -2 -6 -24 -69 -47 -140 l-44
-127 -423 0 c-369 0 -423 2 -423 15 0 10 10 15 29 15 46 0 101 28 112 57 6 17
9 194 7 481 l-3 454 -24 19 c-16 13 -39 19 -72 19 -42 0 -49 3 -49 20 0 20 7
20 425 20 l425 0 2 -95z"/>
</g>
</svg>
